opsz144_wght100_wdth125.ufo
<glyph name="A" format="2">
	<unicode hex="0041"/>
	<advance width="1316"/>
	<outline>
		<contour>
			<point x="-234.6085205078" y="0" type="line"/>
			<point x="-218.4087524414" y="99.9987792969" type="line"/>
			<point x="-1.4080200195" y="130.9987792969" type="line"/>
			<point x="235.7645263672" y="588.0184326172" type="line"/>
			<point x="805.3729858398" y="1506" type="line"/>
			<point x="946.7164916992" y="1500" type="line"/>
			<point x="1023.9334106445" y="562" type="line"/>
			<point x="1062.1221923828" y="117.9987792969" type="line"/>
			<point x="1250.1229248047" y="97.9987792969" type="line"/>
			<point x="1233.9231567383" y="0" type="line"/>
			<point x="670.5850219727" y="0" type="line"/>
			<point x="687.7847900391" y="97.9987792969" type="line"/>
			<point x="884.7855224609" y="120.9987792969" type="line"/>
			<point x="867.564453125" y="548" type="line"/>
			<point x="891" y="1166" type="line"/>
			<point x="886" y="1287" type="line"/>
			<point x="876" y="1287" type="line"/>
			<point x="799" y="1167" type="line"/>
			<point x="317.1978759766" y="557.7778320312" type="line"/>
			<point x="128.9802856445" y="131.9987792969" type="line"/>
			<point x="333.9810180664" y="97.9987792969" type="line"/>
			<point x="319.78125" y="0" type="line"/>
		</contour>
		<contour>
			<point x="250.0371704102" y="521.4261474609" type="line"/>
			<point x="288.190612793" y="617.888671875" type="line"/>
			<point x="606.9272460938" y="521.5551757812" type="line"/>
			<point x="575.2607421875" y="448.8151855469" type="line"/>
		</contour>
		<contour>
			<point x="606.9272460938" y="521.5551757812" type="line"/>
			<point x="977.7513427734" y="616.8331298828" type="line"/>
			<point x="963.2619628906" y="525.5372314453" type="line"/>
			<point x="575.2607421875" y="448.8151855469" type="line"/>
		</contour>
	</outline>
	<anchor name="bottom" x="523" y="0"/>
	<anchor name="ogonek" x="1098" y="0"/>
	<anchor name="top" x="954" y="1500"/>
	<anchor name="tonos" x="613" y="1500"/>
</glyph>
<glyph name="B" format="2">
	<unicode hex="0042"/>
	<advance width="1239"/>
	<outline>
		<contour>
			<point x="-67.1237182617" y="0" type="line"/>
			<point x="-48.9239501953" y="100.9987792969" type="line"/>
			<point x="135.0767822266" y="119.9987792969" type="line"/>
			<point x="283.8770141602" y="764" type="line"/>
			<point x="386" y="1362" type="line"/>
			<point x="193" y="1386" type="line"/>
			<point x="206" y="1500" type="line"/>
			<point x="755.3717041016" y="1500" type="line" smooth="yes"/>
			<point x="964.3422241211" y="1500"/>
			<point x="1183.6305541992" y="1285"/>
			<point x="1159.405456543" y="1113" type="qcurve" smooth="yes"/>
			<point x="1143.1803588867" y="986"/>
			<point x="930.8549194336" y="836"/>
			<point x="816.0385131836" y="803" type="qcurve"/>
			<point x="816.0385131836" y="803" type="line"/>
			<point x="956.2665405273" y="786"/>
			<point x="1162.6068725586" y="568"/>
			<point x="1120.8319702148" y="409" type="qcurve" smooth="yes"/>
			<point x="1069.1501464844" y="210"/>
			<point x="684.1097412109" y="0"/>
			<point x="493.3685302734" y="0" type="qcurve" smooth="yes"/>
		</contour>
		<contour>
			<point x="310.5467529297" y="118.7218017578" type="line"/>
			<point x="323.2319335938" y="92.1477050781" type="line"/>
			<point x="531.9240112305" y="92.1477050781" type="line" smooth="yes"/>
			<point x="572.654296875" y="92.1477050781"/>
			<point x="879.5881347656" y="227"/>
			<point x="920.4950561523" y="410" type="qcurve" smooth="yes"/>
			<point x="959.4950561523" y="590"/>
			<point x="797.9244384766" y="742.5743408203"/>
			<point x="647.78125" y="742.5743408203" type="qcurve" smooth="yes"/>
			<point x="436.3245849609" y="742.5743408203" type="line"/>
			<point x="431.6949462891" y="718.3150634766" type="line"/>
		</contour>
		<contour>
			<point x="464.009765625" y="852.92578125" type="line"/>
			<point x="461.0653076172" y="844.888671875" type="line"/>
			<point x="592.7883911133" y="844.888671875" type="line" smooth="yes"/>
			<point x="754.9291992188" y="844.888671875"/>
			<point x="947.8435058594" y="982"/>
			<point x="966.4019775391" y="1114" type="qcurve" smooth="yes"/>
			<point x="990.9604492188" y="1277"/>
			<point x="788.3065185547" y="1396.5745849609"/>
			<point x="656.2802734375" y="1396.5745849609" type="qcurve" smooth="yes"/>
			<point x="578" y="1380" type="line"/>
			<point x="549" y="1362" type="line"/>
		</contour>
	</outline>
	<anchor name="bottom" x="630" y="0"/>
	<anchor name="top" x="630" y="1500"/>
</glyph>
<glyph name="D" format="2">
	<unicode hex="0044"/>
	<advance width="1525"/>
	<outline>
		<contour>
			<point x="-80.2752075195" y="0" type="line"/>
			<point x="-63.0754394531" y="99.9987792969" type="line"/>
			<point x="129.9252929688" y="123.9987792969" type="line"/>
			<point x="280.3922119141" y="759" type="line"/>
			<point x="410.725769043" y="1362.8013916016" type="line"/>
			<point x="222.3249511719" y="1387.8013916016" type="line"/>
			<point x="233.7247924805" y="1500" type="line"/>
			<point x="797.6685180664" y="1500" type="line" smooth="yes"/>
			<point x="1160.3451538086" y="1500"/>
			<point x="1485.7005004883" y="1100"/>
			<point x="1439.8226928711" y="730" type="qcurve" smooth="yes"/>
			<point x="1397.2476806641" y="380"/>
			<point x="808.4638671875" y="0"/>
			<point x="520.3850708008" y="0" type="qcurve" smooth="yes"/>
		</contour>
		<contour>
			<point x="302.4137573242" y="102.4625244141" type="line"/>
			<point x="311.055480957" y="96.0986328125"/>
			<point x="603.9428100586" y="89.4625244141"/>
			<point x="681.9568481445" y="90.4625244141" type="qcurve" smooth="yes"/>
			<point x="818.3715820312" y="94.4625244141"/>
			<point x="1225.1172485352" y="419.7775878906"/>
			<point x="1253.819152832" y="746" type="qcurve" smooth="yes"/>
			<point x="1281.5090332031" y="1049.5927734375"/>
			<point x="1073.5278930664" y="1405.259765625"/>
			<point x="853.8877563477" y="1401.259765625" type="qcurve" smooth="yes"/>
			<point x="834.2319946289" y="1399.259765625"/>
			<point x="606.106628418" y="1390.259765625"/>
			<point x="588.0065307617" y="1387.259765625" type="qcurve"/>
			<point x="444.7286376953" y="759" type="line"/>
		</contour>
	</outline>
	<anchor name="bottom" x="686" y="0"/>
	<anchor name="center" x="448" y="754"/>
	<anchor name="top" x="827" y="1500"/>
	<anchor name="liga" x="1431" y="0"/>
</glyph>
<glyph name="E" format="2">
	<unicode hex="0045"/>
	<advance width="1209"/>
	<outline>
		<contour>
			<point x="-76.3662719727" y="0" type="line"/>
			<point x="-58.1665039062" y="100.9987792969" type="line"/>
			<point x="131.8342285156" y="124.9987792969" type="line"/>
			<point x="287.6344604492" y="798" type="line"/>
			<point x="402.2346191406" y="1361.8013916016" type="line"/>
			<point x="225.2338867188" y="1388.8013916016" type="line"/>
			<point x="238.6337280273" y="1500" type="line"/>
			<point x="1242.5560302734" y="1500" type="line"/>
			<point x="1168.7794799805" y="1137.6488037109" type="line"/>
			<point x="1073.5385131836" y="1137.6488037109" type="line"/>
			<point x="1071.9262695312" y="1395.9449462891" type="line"/>
			<point x="624.2487792969" y="1395.9449462891" type="line"/>
			<point x="573.2487792969" y="1376.9449462891" type="line"/>
			<point x="445.6375732422" y="785" type="line"/>
			<point x="305.3411865234" y="138.2032470703" type="line"/>
			<point x="335.3411865234" y="102.2032470703" type="line"/>
			<point x="936.9438476562" y="102.2032470703" type="line"/>
			<point x="1105.7178955078" y="399.4993896484" type="line"/>
			<point x="1203.7188720703" y="399.4993896484" type="line"/>
			<point x="1083.2412109375" y="0" type="line"/>
		</contour>
		<contour>
			<point x="352.1545410156" y="727.9075927734" type="line"/>
			<point x="369.4323120117" y="808.6665039062" type="line"/>
			<point x="847.7878417969" y="823.8331298828" type="line"/>
			<point x="924.2741088867" y="993.1292724609" type="line"/>
			<point x="1024.8751831055" y="993.1292724609" type="line"/>
			<point x="928.5138549805" y="515.9633789062" type="line"/>
			<point x="836.512878418" y="515.9633789062" type="line"/>
			<point x="832.6843261719" y="713.2595214844" type="line"/>
		</contour>
	</outline>
	<anchor name="bottom" x="518" y="0"/>
	<anchor name="ogonek" x="827" y="0"/>
	<anchor name="top" x="789" y="1500"/>
	<anchor name="tonos" x="81" y="1500"/>
</glyph>
<glyph name="F" format="2">
	<unicode hex="0046"/>
	<advance width="1161"/>
	<outline>
		<contour>
			<point x="-62.6088256836" y="0" type="line"/>
			<point x="-44.4090576172" y="100.9987792969" type="line"/>
			<point x="126.3916625977" y="124.9987792969" type="line"/>
			<point x="286.3919067383" y="799" type="line"/>
			<point x="392.792175293" y="1364.8013916016" type="line"/>
			<point x="220.9913330078" y="1388.8013916016" type="line"/>
			<point x="234.3911743164" y="1500" type="line"/>
			<point x="1251.9144287109" y="1500" type="line"/>
			<point x="1221.2388916016" y="1211.9742431641" type="line"/>
			<point x="1130.8380126953" y="1211.9742431641" type="line"/>
			<point x="1093.4951171875" y="1402.7967529297" type="line"/>
			<point x="609.0432739258" y="1402.7967529297" type="line"/>
			<point x="569.0432739258" y="1382.7967529297" type="line"/>
			<point x="447.061706543" y="801" type="line"/>
			<point x="300.0614624023" y="121.9987792969" type="line"/>
			<point x="513.2622070312" y="99.9987792969" type="line"/>
			<point x="495.0624389648" y="0" type="line"/>
		</contour>
		<contour>
			<point x="332" y="751" type="line"/>
			<point x="351" y="851" type="line"/>
			<point x="856.4504394531" y="788.6849365234" type="line"/>
			<point x="931.3726806641" y="912.2961425781" type="line"/>
			<point x="1024.3736572266" y="912.2961425781" type="line"/>
			<point x="938.4281616211" y="512.7038574219" type="line"/>
			<point x="846.4271850586" y="512.7038574219" type="line"/>
			<point x="835.3764648438" y="681.0002441406" type="line"/>
		</contour>
	</outline>
	<anchor name="bottom" x="578" y="0"/>
	<anchor name="top" x="622" y="1500"/>
</glyph>
<glyph name="G" format="2">
	<unicode hex="0047"/>
	<advance width="1713"/>
	<outline>
		<contour>
			<point x="100.2167926657" y="836" type="qcurve" smooth="yes"/>
			<point x="197.2167926657" y="1237"/>
			<point x="881.8594406325" y="1567.5335083008"/>
			<point x="1052.4907882888" y="1519.714050293" type="qcurve" smooth="yes"/>
			<point x="1212.6216476638" y="1489.714050293"/>
			<point x="1447.5824020583" y="1393.0553588867"/>
			<point x="1474.2542160231" y="1362.2855834961" type="qcurve" smooth="yes"/>
			<point x="1487.4968307692" y="1343.2856445312" type="line"/>
			<point x="1512.0267379958" y="1327" type="line"/>
			<point x="1455.297123738" y="1048.7038574219" type="line"/>
			<point x="1353.2160690505" y="1048.7038574219" type="line"/>
			<point x="1325.7991989333" y="1067.2470703125" type="line"/>
			<point x="1331.3914840896" y="1227.0690917969"/>
			<point x="1181.5026901442" y="1375.8197631836"/>
			<point x="1064.9753463942" y="1414.6405639648" type="qcurve" smooth="yes"/>
			<point x="888.7718551833" y="1487.8302612305"/>
			<point x="390.8871417868" y="1221"/>
			<point x="286.8870807516" y="818" type="qcurve" smooth="yes"/>
			<point x="183.250911318" y="420.6851806641"/>
			<point x="483.1710251052" y="102.3276367188"/>
			<point x="660.1242721755" y="65.9017333984" type="qcurve" smooth="yes"/>
			<point x="755.3783004958" y="43.8461914062"/>
			<point x="1147.3632858474" y="132.6846923828"/>
			<point x="1211.1827438552" y="199.5549316406" type="qcurve"/>
			<point x="1293.3682907302" y="539.4012451172" type="line"/>
			<point x="1077.7674606521" y="565.2012329102" type="line"/>
			<point x="1094.3673141677" y="665" type="line"/>
			<point x="1680.7052658278" y="665" type="line"/>
			<point x="1661.5054367263" y="564.4012451172" type="line"/>
			<point x="1472.7047775466" y="539.4012451172" type="line"/>
			<point x="1379.7048996169" y="188.0017089844" type="line"/>
			<point x="1296.9269455153" y="136.0008544922" type="line"/>
			<point x="1222.5031173903" y="45.6113891602"/>
			<point x="775.1581466872" y="-59.8569335938"/>
			<point x="626.2207077224" y="-38.8569335938" type="qcurve" smooth="yes"/>
			<point x="392.8742721755" y="-5.8569335938"/>
			<point x="2.2167926657" y="429"/>
		</contour>
	</outline>
	<anchor name="bottom" x="667" y="0"/>
	<anchor name="top" x="907" y="1492"/>
</glyph>
<glyph name="I" format="2">
	<unicode hex="0049"/>
	<advance width="729"/>
	<outline>
		<contour>
			<point x="-64.5781860352" y="0" type="line"/>
			<point x="-44.3784179688" y="98.5987548828" type="line"/>
			<point x="148.6223144531" y="128.5987548828" type="line"/>
			<point x="317.0892333984" y="876" type="line"/>
			<point x="413.8228149414" y="1358.8013916016" type="line"/>
			<point x="241.0219726562" y="1388.8013916016" type="line"/>
			<point x="253.4218139648" y="1500" type="line"/>
			<point x="792.759765625" y="1500" type="line"/>
			<point x="771.3600463867" y="1388.8013916016" type="line"/>
			<point x="584.3593139648" y="1358.8013916016" type="line"/>
			<point x="471.7590332031" y="838" type="line"/>
			<point x="317.9588012695" y="127.5987548828" type="line"/>
			<point x="520.9595336914" y="98.5987548828" type="line"/>
			<point x="502.759765625" y="0" type="line"/>
		</contour>
	</outline>
	<anchor name="bottom" x="220" y="0"/>
	<anchor name="ogonek" x="356" y="0"/>
	<anchor name="top" x="503" y="1500"/>
	<anchor name="tonos" x="81" y="1500"/>
	<anchor name="yu_dash" x="365" y="795"/>
	<anchor name="liga" x="712" y="0"/>
</glyph>
<glyph name="J" format="2">
	<unicode hex="004A"/>
	<advance width="655"/>
	<outline>
		<contour>
			<point x="-185" y="-225" type="qcurve"/>
			<point x="-151" y="-103" type="line"/>
			<point x="-131" y="-110"/>
			<point x="-56" y="-128"/>
			<point x="2" y="-128" type="qcurve" smooth="yes"/>
			<point x="80" y="-128"/>
			<point x="170" y="-1"/>
			<point x="192" y="112" type="qcurve" smooth="yes"/>
			<point x="253.7259521484" y="760" type="line"/>
			<point x="374.1262207031" y="1360.8013916016" type="line"/>
			<point x="212.2454223633" y="1388.8013916016" type="line"/>
			<point x="224.6452636719" y="1500" type="line"/>
			<point x="757.3165283203" y="1500" type="line"/>
			<point x="743.9166870117" y="1388.8013916016" type="line"/>
			<point x="544.7960205078" y="1360.8013916016" type="line"/>
			<point x="415.3957519531" y="748" type="line"/>
			<point x="370" y="204" type="line" smooth="yes"/>
			<point x="322" y="-38"/>
			<point x="152" y="-260"/>
			<point x="28" y="-260" type="qcurve" smooth="yes"/>
			<point x="-44" y="-260"/>
			<point x="-165" y="-237"/>
		</contour>
	</outline>
	<anchor name="bottom" x="376" y="-208"/>
	<anchor name="top" x="533" y="1500"/>
	<anchor name="_liga" x="0" y="0"/>
</glyph>
<glyph name="K" format="2">
	<unicode hex="004B"/>
	<advance width="1198"/>
	<outline>
		<contour>
			<point x="-61.1540527344" y="0" type="line"/>
			<point x="-39.9541625977" y="99.9987792969" type="line"/>
			<point x="139.0465698242" y="124.9987792969" type="line"/>
			<point x="314.8466796875" y="858" type="line"/>
			<point x="423.4468383789" y="1360.8013916016" type="line"/>
			<point x="242.446105957" y="1387.8013916016" type="line"/>
			<point x="253.8459472656" y="1500" type="line"/>
			<point x="820.8507080078" y="1500" type="line"/>
			<point x="803.4508666992" y="1387.8013916016" type="line"/>
			<point x="599.4501342773" y="1360.8013916016" type="line"/>
			<point x="469.8498535156" y="814" type="line"/>
			<point x="311" y="124" type="line"/>
			<point x="510.7172851562" y="99.9987792969" type="line"/>
			<point x="500.5173950195" y="0" type="line"/>
		</contour>
		<contour>
			<point x="303" y="540" type="line"/>
			<point x="331" y="693" type="line"/>
			<point x="1041.1239624023" y="1363.8013916016" type="line"/>
			<point x="807.1232299805" y="1388.8013916016" type="line"/>
			<point x="818.5230712891" y="1500" type="line"/>
			<point x="1406.1905517578" y="1500" type="line"/>
			<point x="1393.7907104492" y="1388.8013916016" type="line"/>
			<point x="1181.7899780273" y="1362.8013916016" type="line"/>
		</contour>
		<contour>
			<point x="589" y="874" type="line"/>
			<point x="717" y="993" type="line"/>
			<point x="981.8893432617" y="119.9987792969" type="line"/>
			<point x="1154.8900756836" y="100.9987792969" type="line"/>
			<point x="1147.6901855469" y="0" type="line"/>
			<point x="608.3520507812" y="0" type="line"/>
			<point x="615.551940918" y="99.9987792969" type="line"/>
			<point x="875" y="124" type="line"/>
		</contour>
	</outline>
	<anchor name="bottom" x="607" y="0"/>
	<anchor name="top" x="896" y="1500"/>
	<anchor name="kai_tail" x="1201" y="100"/>
</glyph>
<glyph name="L" format="2">
	<unicode hex="004C"/>
	<advance width="1172"/>
	<outline>
		<contour>
			<point x="-86.9722290039" y="0" type="line"/>
			<point x="-67.9723510742" y="99.9987792969" type="line"/>
			<point x="129.0283813477" y="122.9987792969" type="line"/>
			<point x="293.4284667969" y="808" type="line"/>
			<point x="412.4286499023" y="1361.6013793945" type="line"/>
			<point x="230.4279174805" y="1388.6013793945" type="line"/>
			<point x="242.0277709961" y="1500" type="line"/>
			<point x="778.3657226562" y="1500" type="line"/>
			<point x="764.7658691406" y="1390.6013793945" type="line"/>
			<point x="581.7651367188" y="1361.6013793945" type="line"/>
			<point x="445.7649536133" y="754" type="line"/>
			<point x="301.8687133789" y="129.2032470703" type="line"/>
			<point x="319.8687133789" y="98.2032470703" type="line"/>
			<point x="881.3081665039" y="98.2032470703" type="line"/>
			<point x="1050.1184692383" y="504.0654907227" type="line"/>
			<point x="1157.4795532227" y="504.0654907227" type="line"/>
			<point x="1014.0953979492" y="0" type="line"/>
		</contour>
	</outline>
	<anchor name="bottom" x="535" y="0"/>
	<anchor name="centerright" x="755" y="750"/>
	<anchor name="top" x="878" y="1500"/>
	<anchor name="topright" x="804" y="1001"/>
	<anchor name="center" x="397" y="750"/>
	<anchor name="liga" x="1104" y="0"/>
</glyph>
<glyph name="M" format="2">
	<unicode hex="004D"/>
	<advance width="1812"/>
	<outline>
		<contour>
			<point x="-103.6088256836" y="0" type="line"/>
			<point x="-85.4089355469" y="99.9987792969" type="line"/>
			<point x="124.591796875" y="129.9987792969" type="line"/>
			<point x="295.5726318359" y="758" type="line"/>
			<point x="449.9920654297" y="1353.8013916016" type="line"/>
			<point x="218.9913330078" y="1388.8013916016" type="line"/>
			<point x="231.3911743164" y="1500" type="line"/>
			<point x="733.5935668945" y="1500" type="line"/>
			<point x="773.2358398438" y="777.7947387695" type="line"/>
			<point x="815" y="327" type="line"/>
			<point x="831" y="213" type="line"/>
			<point x="841" y="213" type="line"/>
			<point x="900" y="327" type="line"/>
			<point x="1172.8966674805" y="900.0665283203" type="line"/>
			<point x="1452.0151367188" y="1500" type="line"/>
			<point x="1883.0962524414" y="1500" type="line"/>
			<point x="1862.2965087891" y="1386.8013916016" type="line"/>
			<point x="1660.2957763672" y="1360.8013916016" type="line"/>
			<point x="1549.0955810547" y="746" type="line"/>
			<point x="1423.2953491211" y="129.9987792969" type="line"/>
			<point x="1623.296081543" y="99.9987792969" type="line"/>
			<point x="1613.0961914062" y="0" type="line"/>
			<point x="1066.7582397461" y="0" type="line"/>
			<point x="1077.9581298828" y="99.9987792969" type="line"/>
			<point x="1260.9588623047" y="129.9987792969" type="line"/>
			<point x="1391.7591552734" y="749" type="line"/>
			<point x="1580" y="1244" type="line"/>
			<point x="1606" y="1363" type="line"/>
			<point x="1597" y="1365" type="line"/>
			<point x="1539" y="1258" type="line"/>
			<point x="1231.6540527344" y="821.7592163086" type="line"/>
			<point x="790.2031860352" y="-5" type="line"/>
			<point x="658.2949829102" y="-5" type="line"/>
			<point x="600.772277832" y="784.8020629883" type="line"/>
			<point x="499" y="1249" type="line"/>
			<point x="485" y="1357" type="line"/>
			<point x="474" y="1355" type="line"/>
			<point x="456" y="1235" type="line"/>
			<point x="389.6506958008" y="754" type="line"/>
			<point x="237.5356445312" y="129.9987792969" type="line"/>
			<point x="467.5363769531" y="99.9987792969" type="line"/>
			<point x="446.3366088867" y="0" type="line"/>
		</contour>
	</outline>
	<anchor name="bottom" x="768" y="0"/>
	<anchor name="top" x="1048" y="1500"/>
</glyph>
<glyph name="N" format="2">
	<unicode hex="004E"/>
	<advance width="1648"/>
	<outline>
		<contour>
			<point x="-92.6088256836" y="0" type="line"/>
			<point x="-73.4089355469" y="99.9987792969" type="line"/>
			<point x="124.591796875" y="128.9987792969" type="line"/>
			<point x="291.3919067383" y="757" type="line"/>
			<point x="450.9920654297" y="1355.8013916016" type="line"/>
			<point x="215.9913330078" y="1388.8013916016" type="line"/>
			<point x="228.3911743164" y="1500" type="line"/>
			<point x="667.1505737305" y="1500" type="line"/>
			<point x="945.4908447266" y="768.1953125" type="line"/>
			<point x="958" y="418" type="line"/>
			<point x="990" y="317" type="line"/>
			<point x="1001" y="319" type="line"/>
			<point x="1024" y="440" type="line"/>
			<point x="1253.6565551758" y="755" type="line"/>
			<point x="1402.6567382812" y="1361.0014038086" type="line"/>
			<point x="1165.6560058594" y="1388.0014038086" type="line"/>
			<point x="1178.6558227539" y="1500" type="line"/>
			<point x="1681.8049926758" y="1500" type="line"/>
			<point x="1669.8051757812" y="1388.0014038086" type="line"/>
			<point x="1499.8044433594" y="1361.0014038086" type="line"/>
			<point x="1346.8042602539" y="750" type="line"/>
			<point x="1170.8042602539" y="-4" type="line"/>
			<point x="1042.6920166016" y="-4" type="line"/>
			<point x="785.3584594727" y="719.5986328125" type="line"/>
			<point x="507" y="1220" type="line"/>
			<point x="471" y="1324" type="line"/>
			<point x="461" y="1321" type="line"/>
			<point x="442" y="1199" type="line"/>
			<point x="385.8544311523" y="755" type="line"/>
			<point x="224.0543212891" y="128.9987792969" type="line"/>
			<point x="474.0550537109" y="99.9987792969" type="line"/>
			<point x="460.8551635742" y="0" type="line"/>
		</contour>
	</outline>
	<anchor name="bottom" x="640" y="0"/>
	<anchor name="top" x="884" y="1500"/>
	<anchor name="engtail" x="1041" y="0"/>
	<anchor name="liga" x="1432" y="0"/>
</glyph>
<glyph name="O" format="2">
	<unicode hex="004F"/>
	<advance width="1554"/>
	<outline>
		<contour>
			<point x="97.0013427734" y="839" type="qcurve" smooth="yes"/>
			<point x="194.0013427734" y="1208"/>
			<point x="757.5059814453" y="1573.0198974609"/>
			<point x="1036.9133911133" y="1514.3529663086" type="qcurve" smooth="yes"/>
			<point x="1287.4122314453" y="1458.7166137695"/>
			<point x="1541.8162841797" y="1003.6666870117"/>
			<point x="1439.0024414062" y="644" type="qcurve" smooth="yes"/>
			<point x="1337.9163818359" y="298"/>
			<point x="808.337890625" y="-74.4654541016"/>
			<point x="523.3887329102" y="-34.4958496094" type="qcurve" smooth="yes"/>
			<point x="281.4006958008" y="3.2015380859"/>
			<point x="-0.9986572266" y="466"/>
		</contour>
		<contour>
			<point x="283.3382568359" y="815" type="qcurve" smooth="yes"/>
			<point x="200.5336914062" y="506.6492919922"/>
			<point x="348.1573486328" y="96.6702880859"/>
			<point x="535.1478881836" y="63.6702880859" type="qcurve" smooth="yes"/>
			<point x="725.0310668945" y="28.6702880859"/>
			<point x="1174.0980834961" y="384.4639892578"/>
			<point x="1250.9987792969" y="664" type="qcurve" smooth="yes"/>
			<point x="1332.229675293" y="964.8759765625"/>
			<point x="1176.33203125" y="1369.5016479492"/>
			<point x="986.6210327148" y="1412.5016479492" type="qcurve" smooth="yes"/>
			<point x="765.6196899414" y="1460.5016479492"/>
			<point x="364.1885375977" y="1122.9938964844"/>
		</contour>
	</outline>
	<anchor name="bottom" x="612" y="0"/>
	<anchor name="center" x="765" y="756"/>
	<anchor name="ogonek" x="844" y="0"/>
	<anchor name="top" x="906" y="1500"/>
	<anchor name="topright" x="1044" y="1500"/>
	<anchor name="tonos" x="230" y="1500"/>
	<anchor name="_yu_dash" x="174" y="795"/>
</glyph>
<glyph name="P" format="2">
	<unicode hex="0050"/>
	<advance width="1275"/>
	<outline>
		<contour>
			<point x="-113.0790405273" y="1" type="line"/>
			<point x="-92.8791503906" y="99.9987792969" type="line"/>
			<point x="111.1215820312" y="124.9987792969" type="line"/>
			<point x="256" y="754" type="line"/>
			<point x="389.5218505859" y="1360.8013916016" type="line"/>
			<point x="191.5211181641" y="1388.8013916016" type="line"/>
			<point x="204.9209594727" y="1500" type="line"/>
			<point x="841.3424682617" y="1500" type="line" smooth="yes"/>
			<point x="1105.6318969727" y="1500"/>
			<point x="1365.8607177734" y="1261"/>
			<point x="1334.2870483398" y="1073" type="qcurve" smooth="yes"/>
			<point x="1299.7133789062" y="862"/>
			<point x="926.3431396484" y="558.9078369141"/>
			<point x="759.6318969727" y="558.9078369141" type="qcurve" smooth="yes"/>
			<point x="593.1870727539" y="558.9078369141"/>
			<point x="352.3048706055" y="587.9265136719"/>
			<point x="317" y="628" type="qcurve"/>
			<point x="337" y="733" type="line"/>
			<point x="350.5539550781" y="667.0001220703"/>
			<point x="541.3391723633" y="642"/>
			<point x="736.4870605469" y="642" type="qcurve" smooth="yes"/>
			<point x="894.002746582" y="642"/>
			<point x="1112.9502563477" y="868"/>
			<point x="1146.9502563477" y="1054" type="qcurve" smooth="yes"/>
			<point x="1180.9502563477" y="1238"/>
			<point x="975.0396118164" y="1399.3153076172"/>
			<point x="757.8446655273" y="1399.3153076172" type="qcurve" smooth="yes"/>
			<point x="578.2026977539" y="1399.3153076172" type="line"/>
			<point x="553.5175170898" y="1382.3153076172" type="line"/>
			<point x="419" y="764" type="line"/>
			<point x="278.7913818359" y="125.9987792969" type="line"/>
			<point x="527.7921142578" y="99.9987792969" type="line"/>
			<point x="516.5922241211" y="1" type="line"/>
		</contour>
	</outline>
	<anchor name="bottom" x="634" y="0"/>
	<anchor name="top" x="634" y="1500"/>
</glyph>
<glyph name="Q" format="2">
	<unicode hex="0051"/>
	<advance width="1554"/>
	<outline>
		<contour>
			<point x="97.0013427734" y="839" type="qcurve" smooth="yes"/>
			<point x="194.0013427734" y="1208"/>
			<point x="758.271484375" y="1579.3809814453"/>
			<point x="1037.678894043" y="1520.714050293" type="qcurve" smooth="yes"/>
			<point x="1288.177734375" y="1465.0776977539"/>
			<point x="1543.1190795898" y="1003"/>
			<point x="1439.0024414062" y="644" type="qcurve" smooth="yes"/>
			<point x="1337.2496948242" y="298"/>
			<point x="771.2951660156" y="-70.5099487305"/>
			<point x="529.7969360352" y="-40.5712280273" type="qcurve" smooth="yes"/>
			<point x="311.9564819336" y="-9.5712890625"/>
			<point x="-0.9986572266" y="466"/>
		</contour>
		<contour>
			<point x="284.3382568359" y="814" type="qcurve" smooth="yes"/>
			<point x="201.6782226562" y="505.6492919922"/>
			<point x="350.9777832031" y="77.3727416992"/>
			<point x="537.5382080078" y="47.3727416992" type="qcurve" smooth="yes"/>
			<point x="742.4213867188" y="14.3727416992"/>
			<point x="1172.6507568359" y="386.709777832"/>
			<point x="1250.9987792969" y="666" type="qcurve" smooth="yes"/>
			<point x="1333.6770019531" y="966.3843994141"/>
			<point x="1178.0975341797" y="1377.8627319336"/>
			<point x="988.3865356445" y="1420.8627319336" type="qcurve" smooth="yes"/>
			<point x="767.3851928711" y="1468.8627319336"/>
			<point x="365.0440063477" y="1121.9938964844"/>
		</contour>
		<contour>
			<point x="391.5170288086" y="-39.4237670898" type="qcurve"/>
			<point x="343.006652832" y="-32.2184448242" type="line"/>
			<point x="834.2714233398" y="-219.0319824219" type="line" smooth="yes"/>
			<point x="909.3207397461" y="-234.6033325195"/>
			<point x="1010.3463745117" y="-151.3084716797"/>
			<point x="1042.1612548828" y="-99.9012451172" type="qcurve"/>
			<point x="1101.068359375" y="-147.6417236328" type="line"/>
			<point x="1066.068359375" y="-222.6417236328"/>
			<point x="890.9377441406" y="-375.0344848633"/>
			<point x="775.2706298828" y="-383.7014160156" type="qcurve"/>
			<point x="373.516784668" y="-196.7600097656" type="line"/>
			<point x="316.2015991211" y="-207.0193481445"/>
			<point x="246.4574584961" y="-215.1107788086"/>
			<point x="149.2718505859" y="-296.2219238281" type="qcurve"/>
			<point x="109.4387207031" y="-241" type="line"/>
			<point x="164.7721557617" y="-178.3333129883"/>
			<point x="273.1837158203" y="-66.0910644531"/>
		</contour>
		<contour>
			<point x="264.3792724609" y="-46.2196655273" type="line"/>
			<point x="262.5783081055" y="-39.0556640625"/>
			<point x="432.8562011719" y="67.8702392578"/>
			<point x="496.0228271484" y="110.2961425781" type="qcurve" smooth="yes"/>
			<point x="498.5413818359" y="109.4443359375"/>
			<point x="509.1154785156" y="120.3332519531"/>
			<point x="517.5413818359" y="123.3887939453" type="qcurve"/>
			<point x="547.6708984375" y="112.5369873047"/>
			<point x="599.7633056641" y="82.6112060547"/>
			<point x="615.9854736328" y="70.7038574219" type="qcurve"/>
			<point x="607.3002929688" y="61.9631347656"/>
			<point x="592.6706542969" y="53.3334960938"/>
			<point x="585.7817382812" y="53.8149414062" type="qcurve" smooth="yes"/>
			<point x="509.3002929688" y="22.2408447266"/>
			<point x="359.65234375" y="-61.814453125"/>
			<point x="363.1196289062" y="-74.7936401367" type="qcurve"/>
		</contour>
	</outline>
	<anchor name="bottom" x="832" y="0"/>
	<anchor name="top" x="832" y="1500"/>
</glyph>
<glyph name="T" format="2">
	<unicode hex="0054"/>
	<advance width="1177"/>
	<outline>
		<contour>
			<point x="74.2123413086" y="1110.9466552734" type="line"/>
			<point x="154.7629394531" y="1500" type="line"/>
			<point x="1336.3894042969" y="1500" type="line"/>
			<point x="1255.8388061523" y="1110.9466552734" type="line"/>
			<point x="1155.8378295898" y="1111.9466552734" type="line"/>
			<point x="1184.0003662109" y="1395.9449462891" type="line"/>
			<point x="842.4021606445" y="1400.9449462891" type="line"/>
			<point x="815.4021606445" y="1388.9449462891" type="line"/>
			<point x="676.791015625" y="754" type="line"/>
			<point x="542.7907714844" y="123.9987792969" type="line"/>
			<point x="725.1916503906" y="99.9987792969" type="line"/>
			<point x="713.7917480469" y="0" type="line"/>
			<point x="142.4537353516" y="0" type="line"/>
			<point x="161.8536376953" y="99.9987792969" type="line"/>
			<point x="369.4542236328" y="123.9987792969" type="line"/>
			<point x="512.4545288086" y="754" type="line"/>
			<point x="641.0656738281" y="1388.9449462891" type="line"/>
			<point x="624.0656738281" y="1400.9449462891" type="line"/>
			<point x="272.3743896484" y="1396.9449462891" type="line"/>
			<point x="174.2133178711" y="1110.9466552734" type="line"/>
		</contour>
	</outline>
	<anchor name="bottom" x="451" y="0"/>
	<anchor name="center" x="584" y="750"/>
	<anchor name="top" x="732" y="1500"/>
	<anchor name="cy_descender" x="755" y="100"/>
</glyph>
<glyph name="V" format="2">
	<unicode hex="0056"/>
	<advance width="1118"/>
	<outline>
		<contour>
			<point x="-35.1962280273" y="1388.8013916016" type="line"/>
			<point x="-14.396484375" y="1500" type="line"/>
			<point x="628.6096191406" y="1500" type="line"/>
			<point x="607.8098754883" y="1388.8013916016" type="line"/>
			<point x="373.6082763672" y="1362.8013916016" type="line"/>
			<point x="427.1900634766" y="805.9222412109" type="line"/>
			<point x="477.7523803711" y="379.8288574219" type="line"/>
			<point x="476.3919677734" y="266.1200561523" type="line"/>
			<point x="483.8319091797" y="266.1200561523" type="line"/>
			<point x="542.4453125" y="387.0021972656" type="line"/>
			<point x="791.3135986328" y="824.9863891602" type="line"/>
			<point x="1094.1459960938" y="1342.8013916016" type="line"/>
			<point x="847.3444213867" y="1387.8013916016" type="line"/>
			<point x="861.7442626953" y="1500" type="line"/>
			<point x="1458.9498291016" y="1500" type="line"/>
			<point x="1447.235168457" y="1388.8013916016" type="line"/>
			<point x="1196.6336669922" y="1343.8013916016" type="line"/>
			<point x="860.678894043" y="748.1735229492" type="line"/>
			<point x="442.0823364258" y="-7.2856445312" type="line"/>
			<point x="352.3378295898" y="-7.2856445312" type="line"/>
			<point x="268.1288452148" y="723.0863647461" type="line"/>
			<point x="214.60546875" y="1357.8013916016" type="line"/>
		</contour>
	</outline>
	<anchor name="bottom" x="373" y="0"/>
	<anchor name="top" x="743" y="1500"/>
</glyph>
<glyph name="X" format="2">
	<unicode hex="0058"/>
	<advance width="1333"/>
	<outline>
		<contour>
			<point x="-167.6592407227" y="0" type="line"/>
			<point x="-154.4593505859" y="99.9987792969" type="line"/>
			<point x="83.5413818359" y="125.9987792969" type="line"/>
			<point x="513" y="764" type="line"/>
			<point x="365.758605957" y="1359.8013916016" type="line"/>
			<point x="162.7578735352" y="1388.8013916016" type="line"/>
			<point x="175.1577148438" y="1500" type="line"/>
			<point x="787.8294067383" y="1500" type="line"/>
			<point x="774.4295654297" y="1387.8013916016" type="line"/>
			<point x="554.4288330078" y="1359.8013916016" type="line"/>
			<point x="581" y="1027" type="line"/>
			<point x="627" y="913" type="line"/>
			<point x="638" y="913" type="line"/>
			<point x="724" y="1027" type="line"/>
			<point x="1123.0022583008" y="1349.8013916016" type="line"/>
			<point x="892.0015258789" y="1387.8013916016" type="line"/>
			<point x="905.4013671875" y="1500" type="line"/>
			<point x="1503.8039550781" y="1500" type="line"/>
			<point x="1488.4041137695" y="1387.8013916016" type="line"/>
			<point x="1237.4033813477" y="1350.8013916016" type="line"/>
			<point x="670" y="808" type="line"/>
			<point x="1065.1520385742" y="124.9987792969" type="line"/>
			<point x="1274.1527709961" y="99.9987792969" type="line"/>
			<point x="1263.9528808594" y="0" type="line"/>
			<point x="610.6145019531" y="0" type="line"/>
			<point x="623.8143920898" y="99.9987792969" type="line"/>
			<point x="877.8151245117" y="124.9987792969" type="line"/>
			<point x="603" y="544" type="line"/>
			<point x="556" y="658" type="line"/>
			<point x="546" y="658" type="line"/>
			<point x="461" y="544" type="line"/>
			<point x="164.563659668" y="123.9987792969" type="line"/>
			<point x="450.5643920898" y="99.9987792969" type="line"/>
			<point x="437.3645019531" y="0" type="line"/>
		</contour>
	</outline>
	<anchor name="bottom" x="453" y="0"/>
	<anchor name="top" x="723" y="1500"/>
	<anchor name="cy_descender" x="1125" y="100"/>
	<anchor name="center" x="591" y="791"/>
</glyph>
<glyph name="Z" format="2">
	<unicode hex="005A"/>
	<advance width="983"/>
	<outline>
		<contour>
			<point x="-105.1291503906" y="0" type="line"/>
			<point x="-131.6105957031" y="79.4440917969" type="line"/>
			<point x="442.6176147461" y="767.3586425781" type="line"/>
			<point x="953.6193237305" y="1391.9449462891" type="line"/>
			<point x="942.6193237305" y="1399.9449462891" type="line"/>
			<point x="352.2139282227" y="1399.9449462891" type="line"/>
			<point x="226.4658813477" y="1159.7038574219" type="line"/>
			<point x="124.8648071289" y="1159.7038574219" type="line"/>
			<point x="204.0536499023" y="1500" type="line"/>
			<point x="1153.8588867188" y="1500" type="line"/>
			<point x="1152.0626220703" y="1421.9262695312" type="line"/>
			<point x="564.4360351562" y="687.7731933594" type="line"/>
			<point x="69.2038574219" y="104.2032470703" type="line"/>
			<point x="75.2038574219" y="97.2032470703" type="line"/>
			<point x="688.4100952148" y="97.2032470703" type="line"/>
			<point x="847.7928466797" y="396.2961425781" type="line"/>
			<point x="940.0338134766" y="396.2961425781" type="line"/>
			<point x="856.5475463867" y="0" type="line"/>
		</contour>
	</outline>
	<anchor name="bottom" x="383" y="0"/>
	<anchor name="top" x="643" y="1500"/>
	<anchor name="_liga" x="0" y="0"/>
</glyph>
<glyph name="a" format="2">
	<unicode hex="0061"/>
	<advance width="1109"/>
	<outline>
		<contour>
			<point x="-15.2526855469" y="301" type="qcurve" smooth="yes"/>
			<point x="-15.2526855469" y="579.4870605469"/>
			<point x="438.8999909191" y="1021.4877929688"/>
			<point x="655.7137726574" y="1021.4877929688" type="qcurve" smooth="yes"/>
			<point x="752.6290558605" y="1021.4877929688"/>
			<point x="786.9866333008" y="965.4877929688"/>
			<point x="771.641784668" y="940.4877929688" type="qcurve"/>
			<point x="904.5248413086" y="1009.4877929688" type="line"/>
			<point x="928.1737670898" y="1003.4877929688" type="line"/>
			<point x="965.5074738293" y="982.4877929688" type="line"/>
			<point x="836.4760407238" y="402" type="line"/>
			<point x="790.4758576183" y="239" type="line"/>
			<point x="771.8188141613" y="162"/>
			<point x="812.9435700207" y="28"/>
			<point x="832.8485382824" y="-2" type="qcurve"/>
			<point x="616.0320438554" y="-26.53515625" type="line"/>
			<point x="593.204956453" y="26.1989746094"/>
			<point x="635.5356449296" y="156.7138061523"/>
			<point x="597.2113651444" y="97.3799438477" type="qcurve"/>
			<point x="557.4939579179" y="69.1616210938"/>
			<point x="379.8168949296" y="-8"/>
			<point x="286.8712162187" y="-8" type="qcurve" smooth="yes"/>
			<point x="180.1356815507" y="-8"/>
			<point x="-15.2526855469" y="138"/>
		</contour>
		<contour>
			<point x="162.0838012695" y="291" type="qcurve" smooth="yes"/>
			<point x="162.0838012695" y="149"/>
			<point x="265.9834259777" y="102.2574462891"/>
			<point x="325.3456696301" y="102.2574462891" type="qcurve" smooth="yes"/>
			<point x="406.3483551769" y="102.2574462891"/>
			<point x="629.6063507824" y="182"/>
			<point x="651.5736087968" y="306" type="qcurve" smooth="yes"/>
			<point x="762.8656281262" y="809.2768554688" type="line"/>
			<point x="751.4436645508" y="831.2768554688"/>
			<point x="745.0224274426" y="897.0444335938"/>
			<point x="656.0210846691" y="897.0444335938" type="qcurve" smooth="yes"/>
			<point x="435.3794220715" y="897.0444335938"/>
			<point x="162.0838012695" y="559.4870605469"/>
		</contour>
	</outline>
	<anchor name="bottom" x="345" y="0"/>
	<anchor name="ogonek" x="732" y="0"/>
	<anchor name="top" x="608" y="1000"/>
</glyph>
<glyph name="b" format="2">
	<unicode hex="0062"/>
	<advance width="1101"/>
	<outline>
		<contour>
			<point x="39.5257568359" y="201" type="qcurve" smooth="yes"/>
			<point x="123.1923217773" y="594" type="line"/>
			<point x="278.4359130859" y="1429.3582763672" type="line"/>
			<point x="127.86328125" y="1404.3582763672" type="line"/>
			<point x="144.7722167969" y="1475.2669677734" type="line"/>
			<point x="412.6795043945" y="1561.2669677734" type="line"/>
			<point x="475.6811523438" y="1510.9323120117" type="line"/>
			<point x="279.862121582" y="585" type="line"/>
			<point x="194.1955566406" y="162" type="line" smooth="yes"/>
			<point x="189.1879272461" y="138.0703125"/>
			<point x="220.257019043" y="103.8618164062"/>
			<point x="268.0311889648" y="103.8618164062" type="qcurve" smooth="yes"/>
			<point x="502.0367431641" y="103.8618164062"/>
			<point x="845.1782226562" y="439.4600830078"/>
			<point x="846.8353271484" y="686.7849121094" type="qcurve" smooth="yes"/>
			<point x="846.8353271484" y="805.1799316406"/>
			<point x="783.3566894531" y="876.4113769531"/>
			<point x="694.7525024414" y="876.4113769531" type="qcurve" smooth="yes"/>
			<point x="606.6232299805" y="876.4113769531"/>
			<point x="218.7811889648" y="627.4122314453"/>
			<point x="213.2235717773" y="577.8934326172" type="qcurve"/>
			<point x="234.7396850586" y="723.1209106445" type="line"/>
			<point x="247.8713989258" y="752.2131347656"/>
			<point x="671.3921508789" y="1004.7849121094"/>
			<point x="764.6383056641" y="1004.7849121094" type="qcurve" smooth="yes"/>
			<point x="869.5693359375" y="1004.7849121094"/>
			<point x="1043.0004882812" y="847.7849121094"/>
			<point x="1041.1719360352" y="704.7849121094" type="qcurve" smooth="yes"/>
			<point x="1037.514831543" y="426.4600830078"/>
			<point x="610.8014526367" y="-11"/>
			<point x="249.2631225586" y="-11" type="qcurve" smooth="yes"/>
			<point x="174.494140625" y="-11"/>
			<point x="15.5257568359" y="92"/>
		</contour>
	</outline>
	<anchor name="bottom" x="571" y="0"/>
	<anchor name="top" x="571" y="1533"/>
</glyph>
<glyph name="c" format="2">
	<unicode hex="0063"/>
	<advance width="950"/>
	<outline>
		<contour>
			<point x="24.4226074219" y="510.4061279297" type="qcurve" smooth="yes"/>
			<point x="63.1794433594" y="741.4334716797"/>
			<point x="410.8917236328" y="1029.8122558594"/>
			<point x="578.4683837891" y="1029.8122558594" type="qcurve" smooth="yes"/>
			<point x="760.5926513672" y="1029.8122558594"/>
			<point x="889.8156738281" y="920.8122558594"/>
			<point x="889.8156738281" y="844.8122558594" type="qcurve" smooth="yes"/>
			<point x="889.8156738281" y="797.8122558594"/>
			<point x="805.1474609375" y="748.8122558594"/>
			<point x="730.1461791992" y="724.8122558594" type="qcurve"/>
			<point x="676.8124389648" y="743.8122558594" type="line"/>
			<point x="681.8124389648" y="915.8122558594" type="line" smooth="yes"/>
			<point x="682.8124389648" y="959.8122558594"/>
			<point x="646.8597412109" y="916.7644042969"/>
			<point x="551.7730102539" y="916.7644042969" type="qcurve" smooth="yes"/>
			<point x="416.5455932617" y="916.7644042969"/>
			<point x="231.1824951172" y="712.6226806641"/>
			<point x="195.4256591797" y="497.4061279297" type="qcurve" smooth="yes"/>
			<point x="161.8580322266" y="288.5679931641"/>
			<point x="296.3187866211" y="109.1176757812"/>
			<point x="417.756652832" y="109.1176757812" type="qcurve" smooth="yes"/>
			<point x="558.2510375977" y="109.1176757812"/>
			<point x="759.326965332" y="212.4428710938"/>
			<point x="805.9454345703" y="265.55859375" type="qcurve"/>
			<point x="860.7280883789" y="210.5346679688" type="line"/>
			<point x="860.7280883789" y="175.9296875" type="line"/>
			<point x="822.1537475586" y="138.5739746094"/>
			<point x="483.5190429688" y="-8"/>
			<point x="315.8587036133" y="-8" type="qcurve" smooth="yes"/>
			<point x="150.2780151367" y="-8"/>
			<point x="-16.7396240234" y="264.1625976562"/>
		</contour>
	</outline>
	<anchor name="bottom" x="343" y="0"/>
	<anchor name="top" x="600" y="1000"/>
</glyph>
<glyph name="d" format="2">
	<unicode hex="0064"/>
	<advance width="995"/>
	<outline>
		<contour>
			<point x="-57.0601832706" y="295.9460449219" type="qcurve" smooth="yes"/>
			<point x="-57.5545346551" y="563.4870605469"/>
			<point x="386.0016787238" y="1005.5697021484"/>
			<point x="665.4310000129" y="1005.7039794922" type="qcurve" smooth="yes"/>
			<point x="738.1003725715" y="995.7039794922" type="line"/>
			<point x="814.4483339972" y="1421.940612793" type="line"/>
			<point x="647.2394106574" y="1406.3041992188" type="line"/>
			<point x="664.1483462043" y="1477.212890625" type="line"/>
			<point x="936.7223818488" y="1567.212890625" type="line"/>
			<point x="995.7239687629" y="1518.2116088867" type="line"/>
			<point x="794.2383730597" y="469" type="line"/>
			<point x="737.8746645636" y="130.8176879883" type="line"/>
			<point x="965.8110048957" y="161.8176879883" type="line"/>
			<point x="965.8110048957" y="76" type="line"/>
			<point x="656.9028628058" y="-6" type="line"/>
			<point x="573.9021914191" y="76.6682128906" type="line"/>
			<point x="599.5920107551" y="246.9067382812" type="line"/>
			<point x="602.0791323371" y="151.4184570312"/>
			<point x="278.0299380011" y="-7"/>
			<point x="197.4523012824" y="-7" type="qcurve" smooth="yes"/>
			<point x="77.8067934699" y="-7"/>
			<point x="-55.8887355167" y="132.5676269531"/>
		</contour>
		<contour>
			<point x="120.9429295224" y="295.9460449219" type="qcurve" smooth="yes"/>
			<point x="122.1343691535" y="197.0600585938"/>
			<point x="143.781036634" y="96.0942382812"/>
			<point x="248.9069521613" y="96.0942382812" type="qcurve" smooth="yes"/>
			<point x="355.9538881965" y="96.0942382812"/>
			<point x="597.8780214972" y="245"/>
			<point x="624.5688173957" y="402" type="qcurve" smooth="yes"/>
			<point x="703.4568789191" y="803.0047607422" type="line"/>
			<point x="704.4568789191" y="822.0047607422"/>
			<point x="618.4494936652" y="882.0047607422"/>
			<point x="556.6485903449" y="882.0047607422" type="qcurve" smooth="yes"/>
			<point x="331.2276919074" y="882.0047607422"/>
			<point x="119.6000340145" y="551.4870605469"/>
		</contour>
	</outline>
	<anchor name="bottom" x="604" y="0"/>
	<anchor name="center" x="876" y="1202"/>
	<anchor name="top" x="704" y="1534"/>
	<anchor name="topright" x="1076" y="1000"/>
	<anchor name="liga" x="1067" y="0"/>
</glyph>
<glyph name="e" format="2">
	<unicode hex="0065"/>
	<advance width="1046"/>
	<outline>
		<contour>
			<point x="9.8092107904" y="493.8477172852" type="qcurve" smooth="yes"/>
			<point x="34.2722845208" y="735.8741455078"/>
			<point x="393.4766302239" y="1030.5960693359"/>
			<point x="571.4923162591" y="1030.5960693359" type="qcurve" smooth="yes"/>
			<point x="682.9674749505" y="1030.5960693359"/>
			<point x="883.5701360833" y="934.5505981445"/>
			<point x="920.1114568841" y="850.1001586914" type="qcurve" smooth="yes"/>
			<point x="935.8086614739" y="816.9613647461"/>
			<point x="952.2561712396" y="746.4602050781"/>
			<point x="952.9585638177" y="717.3944091797" type="qcurve"/>
			<point x="1053.6563177239" y="708.5106201172" type="line"/>
			<point x="1015.6094427239" y="614.8118896484" type="line"/>
			<point x="918.1583929193" y="614.4785766602"/>
			<point x="675.3641357422" y="613.8118896484"/>
			<point x="557.3089056146" y="612.8118896484" type="qcurve" smooth="yes"/>
			<point x="148.1619873047" y="605.8118896484" type="line"/>
			<point x="181.4762029779" y="698.960144043" type="line"/>
			<point x="729.7227239739" y="708.8826904297" type="line"/>
			<point x="736.5930853021" y="720.2142333984"/>
			<point x="738.0597601068" y="771.0621337891"/>
			<point x="727.0310735833" y="798.6162109375" type="qcurve" smooth="yes"/>
			<point x="709.6594915521" y="848.7283935547"/>
			<point x="606.7613592279" y="910.9202880859"/>
			<point x="511.6561956536" y="910.9202880859" type="qcurve" smooth="yes"/>
			<point x="395.8898382318" y="910.9202880859"/>
			<point x="219.2689886224" y="749.7975463867"/>
			<point x="199.8028020989" y="505.6762695312" type="qcurve" smooth="yes"/>
			<point x="197.4876165521" y="351.1751708984"/>
			<point x="328.3167724609" y="132.6409301758"/>
			<point x="471.1079711914" y="114.8541870117" type="qcurve" smooth="yes"/>
			<point x="649.1181640625" y="94.8490600586"/>
			<point x="881.2793579102" y="212.1298217773"/>
			<point x="947.3519287109" y="290.3339233398" type="qcurve"/>
			<point x="1000.6273260247" y="243.1162109375" type="line"/>
			<point x="1017.7205877435" y="205.1537475586" type="line"/>
			<point x="935.6224365234" y="136.8485717773"/>
			<point x="569.6341552734" y="-27.9088134766"/>
			<point x="373.3964910638" y="-7.9999389648" type="qcurve" smooth="yes"/>
			<point x="199.8809814453" y="10.5755615234"/>
			<point x="-9.7802057136" y="272.9104614258"/>
		</contour>
	</outline>
	<anchor name="bottom" x="339" y="0"/>
	<anchor name="ogonek" x="495" y="0"/>
	<anchor name="top" x="601" y="1000"/>
</glyph>
<glyph name="g" format="2">
	<unicode hex="0067"/>
	<advance width="980"/>
	<outline>
		<contour>
			<point x="-27.6631469727" y="307.9730224609" type="qcurve" smooth="yes"/>
			<point x="-9.0060424805" y="564.7032470703"/>
			<point x="274.5731201172" y="1018.3255615234"/>
			<point x="494.0959472656" y="1018.3255615234" type="qcurve" smooth="yes"/>
			<point x="614.5249023438" y="1018.3255615234"/>
			<point x="732.0399169922" y="961.3255615234"/>
			<point x="750.6116333008" y="933.3255615234" type="qcurve"/>
			<point x="802.2788085938" y="1003.3255615234" type="line"/>
			<point x="851.9461669922" y="1003.3255615234" type="line"/>
			<point x="897.2807006836" y="806.6557006836" type="line"/>
			<point x="862.3443603516" y="625" type="line" smooth="yes"/>
			<point x="808.2723388672" y="377.4774169922"/>
			<point x="785.2689819336" y="312.8038330078"/>
			<point x="740.4117431641" y="121.8038330078" type="qcurve" smooth="yes"/>
			<point x="694.3543701172" y="-109.6244506836"/>
			<point x="361.6504516602" y="-416.1961669922"/>
			<point x="225.2194824219" y="-416.1961669922" type="qcurve"/>
			<point x="91.6170654297" y="-378.1961669922" type="line"/>
			<point x="93.2534179688" y="-307.923828125" type="line"/>
			<point x="235.5111083984" y="-287.9239501953" type="line" smooth="yes"/>
			<point x="395.9524536133" y="-272.0149536133"/>
			<point x="535.9080810547" y="-44.3858032227"/>
			<point x="595.4993896484" y="196.9852905273" type="qcurve" smooth="yes"/>
			<point x="602.3507080078" y="217.1714477539" type="line"/>
			<point x="604.9669189453" y="123.1714477539"/>
			<point x="407.5813598633" y="-10"/>
			<point x="241.446472168" y="-9" type="qcurve" smooth="yes"/>
			<point x="120.7772216797" y="-8"/>
			<point x="-40.4916992188" y="145.9552612305"/>
		</contour>
		<contour>
			<point x="150.6732788086" y="305.9730224609" type="qcurve" smooth="yes"/>
			<point x="139.8447265625" y="184.7843017578"/>
			<point x="248.2446899414" y="112.2029418945"/>
			<point x="351.9318237305" y="104.2029418945" type="qcurve" smooth="yes"/>
			<point x="456.1444702148" y="94.2029418945"/>
			<point x="621.4796142578" y="275.3720092773"/>
			<point x="664.8998413086" y="502.9097290039" type="qcurve" smooth="yes"/>
			<point x="727.8571166992" y="811.5101318359" type="line"/>
			<point x="694.5142211914" y="840.5101318359"/>
			<point x="611.9771118164" y="894.5101318359"/>
			<point x="510.1483764648" y="894.5101318359" type="qcurve" smooth="yes"/>
			<point x="343.9578857422" y="894.5101318359"/>
			<point x="165.5018310547" y="511.34375"/>
		</contour>
	</outline>
	<anchor name="bottom" x="324" y="-416"/>
	<anchor name="top" x="603" y="1000"/>
</glyph>
<glyph name="k" format="2">
	<unicode hex="006B"/>
	<advance width="1002"/>
	<outline>
		<contour>
			<point x="505.1348876953" y="491.1645507812" type="line"/>
			<point x="88.3320922852" y="151.7188110352" type="line"/>
			<point x="103.1311645508" y="265.5281982422" type="line"/>
			<point x="715.4711303711" y="798.982421875" type="line"/>
			<point x="716.6931762695" y="843.6922607422"/>
			<point x="649.7764892578" y="908.7283935547"/>
			<point x="616.3265380859" y="908.7283935547" type="qcurve" smooth="yes"/>
			<point x="559.3364257812" y="908.7283935547"/>
			<point x="308.2188720703" y="770.6582641602"/>
			<point x="283.162902832" y="729.1468505859" type="qcurve"/>
			<point x="270.0004882812" y="681.885559082" type="line"/>
			<point x="167.7303466797" y="106.3339233398" type="line"/>
			<point x="203.3967895508" y="30.3338623047" type="line"/>
			<point x="2.3934326172" y="-6" type="line"/>
			<point x="-23.6065673828" y="74" type="line"/>
			<point x="96.3934326172" y="585" type="line"/>
			<point x="260.606628418" y="1419.3042602539" type="line"/>
			<point x="72.3977050781" y="1406.3041992188" type="line"/>
			<point x="89.306640625" y="1477.212890625" type="line"/>
			<point x="379.2139892578" y="1564.8798217773" type="line"/>
			<point x="442.8823242188" y="1513.8784790039" type="line"/>
			<point x="320.2430419922" y="908.0736694336" type="line"/>
			<point x="366.8642578125" y="914.1169433594"/>
			<point x="612.1505126953" y="1018.2176513672"/>
			<point x="692.9632568359" y="1018.2176513672" type="qcurve" smooth="yes"/>
			<point x="778.1089477539" y="1018.2176513672"/>
			<point x="870.9378662109" y="917.2125244141"/>
			<point x="872.7446899414" y="911.3908081055" type="qcurve" smooth="yes"/>
			<point x="884.5326538086" y="798.5670776367" type="line"/>
			<point x="870.0520629883" y="783.8229370117" type="line"/>
			<point x="502.1318359375" y="495.4372558594" type="line"/>
		</contour>
		<contour>
			<point x="686.3912353516" y="660.0959472656" type="line"/>
			<point x="799.4274291992" y="165.6669921875" type="line"/>
			<point x="965.3320922852" y="192.6669921875" type="line"/>
			<point x="965.3320922852" y="110.6674804688" type="line"/>
			<point x="707.4401245117" y="-3.0998535156" type="line" smooth="yes"/>
			<point x="688.9229736328" y="-14.7303466797"/>
			<point x="713.6763916016" y="7.4418945312"/>
			<point x="704.4321899414" y="60" type="qcurve" smooth="yes"/>
			<point x="563.0927124023" y="566.3369140625" type="line"/>
		</contour>
	</outline>
	<anchor name="bottom" x="448" y="0"/>
	<anchor name="top" x="578" y="1534"/>
</glyph>
<glyph name="l" format="2">
	<unicode hex="006C"/>
	<advance width="586"/>
	<outline>
		<contour>
			<point x="89.1928710938" y="-24" type="line"/>
			<point x="2.8587036133" y="96.3352661133" type="line"/>
			<point x="108.1918945312" y="613" type="line"/>
			<point x="254.0716552734" y="1420.1224365234" type="line"/>
			<point x="78.8627319336" y="1404.3041992188" type="line"/>
			<point x="95.7716674805" y="1475.212890625" type="line"/>
			<point x="381.345703125" y="1572.5465698242" type="line"/>
			<point x="445.0140380859" y="1521.2119140625" type="line"/>
			<point x="267.8616943359" y="605" type="line"/>
			<point x="178.9525146484" y="122.9995117188" type="line"/>
			<point x="364.4343261719" y="167.9995117188" type="line"/>
			<point x="364.4343261719" y="80" type="line"/>
		</contour>
	</outline>
	<anchor name="bottom" x="201" y="0"/>
	<anchor name="center" x="236" y="770"/>
	<anchor name="top" x="436" y="1534"/>
	<anchor name="topright" x="492" y="1000"/>
	<anchor name="centerright" x="707" y="742"/>
	<anchor name="liga" x="567" y="0"/>
</glyph>
<glyph name="m" format="2">
	<unicode hex="006D"/>
	<advance width="1760"/>
	<outline>
		<contour>
			<point x="47.3311767578" y="-22.3338623047" type="line"/>
			<point x="23.6643066406" y="52.666015625" type="line"/>
			<point x="128.9978027344" y="503" type="line"/>
			<point x="192.6654663086" y="872.4221801758" type="line"/>
			<point x="66.0323486328" y="858.4221801758" type="line"/>
			<point x="67.6687011719" y="952.7852783203" type="line"/>
			<point x="255.2420654297" y="1011.7852783203" type="line"/>
			<point x="325.5761108398" y="995.7852783203" type="line"/>
			<point x="341.7685546875" y="719.2298583984" type="line"/>
			<point x="308.3343505859" y="582" type="line"/>
			<point x="203.3343505859" y="87" type="line"/>
			<point x="244.3343505859" y="13" type="line"/>
		</contour>
		<contour>
			<point x="626.7286987305" y="-5.3333129883" type="line"/>
			<point x="613.7286987305" y="74.6666870117" type="line"/>
			<point x="774.1582641602" y="789.451965332" type="line" smooth="yes"/>
			<point x="779.4248046875" y="805.2753295898"/>
			<point x="723.3322753906" y="869.9698486328"/>
			<point x="665.0412597656" y="869.9698486328" type="qcurve" smooth="yes"/>
			<point x="608.2070922852" y="869.9698486328"/>
			<point x="336.854309082" y="713.2231445312"/>
			<point x="230.0640869141" y="609.9468994141" type="qcurve"/>
			<point x="251.1109619141" y="739.0181884766" type="line"/>
			<point x="385.0209960938" y="867.6875610352"/>
			<point x="726.2802734375" y="1022.451965332"/>
			<point x="855.8125610352" y="1022.451965332" type="qcurve" smooth="yes"/>
			<point x="917.3831787109" y="1022.451965332"/>
			<point x="973.3220214844" y="871.6861572266"/>
			<point x="925.6420288086" y="705.451965332" type="qcurve" smooth="yes"/>
			<point x="791.7319946289" y="122.0010986328" type="line"/>
			<point x="838.0657348633" y="33.0006103516" type="line"/>
		</contour>
		<contour>
			<point x="1308.7759399414" y="-21.6669311523" type="line"/>
			<point x="1220.1085205078" y="115.6680908203" type="line"/>
			<point x="1366.6851196289" y="756.9713134766" type="line" smooth="yes"/>
			<point x="1372.2634887695" y="772.1678466797"/>
			<point x="1322.482421875" y="859.0396728516"/>
			<point x="1273.9732055664" y="865.0396728516" type="qcurve" smooth="yes"/>
			<point x="1214.497253418" y="872.0396728516"/>
			<point x="918.6455078125" y="690.2230834961"/>
			<point x="820.3301391602" y="589.2333374023" type="qcurve"/>
			<point x="832.9737548828" y="716.7852783203" type="line"/>
			<point x="941.3298339844" y="815.4776611328"/>
			<point x="1314.7252197266" y="1021.7852783203"/>
			<point x="1440.9412841797" y="1021.7852783203" type="qcurve" smooth="yes"/>
			<point x="1520.3039550781" y="1021.7852783203"/>
			<point x="1566.356628418" y="855.9001464844"/>
			<point x="1523.3549194336" y="704.7852783203" type="qcurve" smooth="yes"/>
			<point x="1381.5051269531" y="124.9995117188" type="line"/>
			<point x="1553.0173950195" y="168.9995117188" type="line"/>
			<point x="1553.0173950195" y="80" type="line"/>
		</contour>
	</outline>
	<anchor name="bottom" x="958" y="0"/>
	<anchor name="top" x="958" y="1000"/>
	<anchor name="cy_descender" x="1572" y="134"/>
</glyph>
<glyph name="n" format="2">
	<unicode hex="006E"/>
	<advance width="1124"/>
	<outline>
		<contour>
			<point x="54.9583740234" y="-5" type="line"/>
			<point x="37.9583740234" y="56.0788574219" type="line"/>
			<point x="129.9978027344" y="503" type="line"/>
			<point x="197.6959838867" y="871.8275756836" type="line"/>
			<point x="66.0323486328" y="857.8275756836" type="line"/>
			<point x="67.6687011719" y="952.1906738281" type="line"/>
			<point x="249.2418823242" y="1001.2301025391" type="line"/>
			<point x="325.5761108398" y="987.2301025391" type="line"/>
			<point x="337.2445068359" y="723.1906738281" type="line"/>
			<point x="324.2445068359" y="670.1906738281" type="line"/>
			<point x="210.9615478516" y="55.6380004883" type="line"/>
			<point x="217.1192626953" y="8.5197143555" type="line"/>
		</contour>
		<contour>
			<point x="702.5924682617" y="-9.143371582" type="line"/>
			<point x="674.434753418" y="63" type="line"/>
			<point x="808.3952026367" y="690.7476196289" type="line" smooth="yes"/>
			<point x="826.8711547852" y="778.3642578125"/>
			<point x="781.458984375" y="865.2042236328"/>
			<point x="699.7647094727" y="866.2042236328" type="qcurve" smooth="yes"/>
			<point x="609.823059082" y="867.2042236328"/>
			<point x="343.9946899414" y="725.0773925781"/>
			<point x="253.3642578125" y="579.2521972656" type="qcurve"/>
			<point x="264.5993041992" y="698.4633178711" type="line"/>
			<point x="280.9728393555" y="800.5102539062"/>
			<point x="649.2413330078" y="1027.1904907227"/>
			<point x="779.8068847656" y="1027.1904907227" type="qcurve" smooth="yes"/>
			<point x="899.9477539062" y="1027.1904907227"/>
			<point x="1019.4691772461" y="878.448059082"/>
			<point x="998.0355834961" y="815.0291748047" type="qcurve" smooth="yes"/>
			<point x="834.0528564453" y="118.9995117188" type="line"/>
			<point x="1003.7164916992" y="168.9995117188" type="line"/>
			<point x="1003.7164916992" y="80" type="line"/>
		</contour>
	</outline>
	<anchor name="bottom" x="522" y="0"/>
	<anchor name="top" x="602" y="1000"/>
	<anchor name="liga" x="1173" y="0"/>
</glyph>
<glyph name="o" format="2">
	<unicode hex="006F"/>
	<advance width="1065"/>
	<outline>
		<contour>
			<point x="17.914457898" y="567.0007324219" type="qcurve" smooth="yes"/>
			<point x="71.7070116089" y="819.7477416992"/>
			<point x="410.0528368042" y="1056.8584594727"/>
			<point x="598.8975023316" y="1041.8584594727" type="qcurve" smooth="yes"/>
			<point x="830.9164842652" y="1022.7685546875"/>
			<point x="978.8875536011" y="689.8388671875"/>
			<point x="940.2664476441" y="478.0007324219" type="qcurve" smooth="yes"/>
			<point x="897.5821947144" y="241.6591796875"/>
			<point x="554.1360887574" y="-46.8569946289"/>
			<point x="365.0304369019" y="-25.8569946289" type="qcurve" smooth="yes"/>
			<point x="147.7403368042" y="-3.4337768555"/>
			<point x="-34.7697950317" y="330.4958496094"/>
		</contour>
		<contour>
			<point x="207.9176927612" y="588.0007324219" type="qcurve" smooth="yes"/>
			<point x="155.2258216417" y="369.7229049486"/>
			<point x="237.641813855" y="81.4768676758"/>
			<point x="381.4151292847" y="61.3998413086" type="qcurve" smooth="yes"/>
			<point x="554.0348802612" y="41.3998413086"/>
			<point x="733.5706844876" y="332.1934324397"/>
			<point x="759.9297777222" y="486.1721801758" type="qcurve" smooth="yes"/>
			<point x="792.1309348838" y="661.3887628176"/>
			<point x="752.1667772339" y="924.5781860352"/>
			<point x="580.7781053589" y="940.5781860352" type="qcurve" smooth="yes"/>
			<point x="440.389067273" y="955.5781860352"/>
			<point x="247.8267215256" y="766.1170579388"/>
		</contour>
	</outline>
	<anchor name="bottom" x="358" y="0"/>
	<anchor name="center" x="461" y="500"/>
	<anchor name="ogonek" x="514" y="0"/>
	<anchor name="top" x="584" y="1000"/>
	<anchor name="topright" x="663" y="1000"/>
	<anchor name="GRKtop" x="584" y="1000"/>
	<anchor name="yu_dash" x="83" y="498"/>
</glyph>
<glyph name="q" format="2">
	<unicode hex="0071"/>
	<advance width="1059"/>
	<outline>
		<contour>
			<point x="-12.8566894531" y="284.9460449219" type="qcurve" smooth="yes"/>
			<point x="-8.3710327148" y="578.2708740234"/>
			<point x="337.0142211914" y="1021.2985839844"/>
			<point x="538.4031982422" y="1021.2985839844" type="qcurve" smooth="yes"/>
			<point x="656.632019043" y="1021.2985839844"/>
			<point x="805.0896606445" y="977.2985839844"/>
			<point x="827.9755859375" y="960.2985839844" type="qcurve"/>
			<point x="865.1571655273" y="984.2985839844" type="line"/>
			<point x="899.1577148438" y="984.2985839844" type="line"/>
			<point x="956.158996582" y="839.6290893555" type="line"/>
			<point x="853.6547851562" y="353" type="line"/>
			<point x="700.5828857422" y="-290.2147216797" type="line"/>
			<point x="849.3372802734" y="-324.4874267578" type="line"/>
			<point x="826.4283447266" y="-396.3961181641" type="line"/>
			<point x="601.8546142578" y="-413.0632324219" type="line"/>
			<point x="529.9196166992" y="-346.7285766602" type="line"/>
			<point x="684.9852905273" y="273" type="line"/>
			<point x="681.9852905273" y="275" type="line"/>
			<point x="615.2880859375" y="132.1714477539"/>
			<point x="352.9666137695" y="-9"/>
			<point x="238.6629638672" y="-9" type="qcurve" smooth="yes"/>
			<point x="135.6315917969" y="-9"/>
			<point x="-14.6852416992" y="123.2981567383"/>
		</contour>
		<contour>
			<point x="163.8131713867" y="276.9460449219" type="qcurve" smooth="yes"/>
			<point x="161.9846191406" y="190.1690673828"/>
			<point x="239.2164306641" y="97.7221679688"/>
			<point x="296.4749755859" y="97.7221679688" type="qcurve" smooth="yes"/>
			<point x="406.2481689453" y="97.7221679688"/>
			<point x="682.0573120117" y="255.5892944336"/>
			<point x="703.6517944336" y="409" type="qcurve" smooth="yes"/>
			<point x="799.1709594727" y="838.7390136719" type="line"/>
			<point x="772.9995117188" y="853.7390136719"/>
			<point x="736.8305053711" y="899.7390136719"/>
			<point x="668.1146850586" y="899.7390136719" type="qcurve" smooth="yes"/>
			<point x="426.4173583984" y="899.7390136719"/>
			<point x="167.4702758789" y="514.1307373047"/>
		</contour>
	</outline>
	<anchor name="bottom" x="594" y="0"/>
	<anchor name="top" x="594" y="1000"/>
</glyph>
<glyph name="r" format="2">
	<unicode hex="0072"/>
	<advance width="831"/>
	<outline>
		<contour>
			<point x="108.3145751953" y="-3.8139648438" type="line"/>
			<point x="34.4387207031" y="48.2713012695" type="line"/>
			<point x="166.7567749023" y="561.9689941406" type="line"/>
			<point x="180.2794189453" y="859.3491821289" type="line"/>
			<point x="33.0254516602" y="837.4212036133" type="line"/>
			<point x="34.6618041992" y="942.9314575195" type="line"/>
			<point x="215.7846679688" y="1000.3923950195" type="line"/>
			<point x="301.4052124023" y="996.0823974609" type="line"/>
			<point x="323.840637207" y="859.1498413086" type="line"/>
			<point x="365.0942382812" y="839.0591430664" type="line"/>
			<point x="252.4278564453" y="135.6195678711" type="line"/>
			<point x="421.2857055664" y="117.1022338867" type="line"/>
			<point x="423.8051757812" y="30.6299438477" type="line"/>
		</contour>
		<contour>
			<point x="791.9462890625" y="708.0538330078" type="line"/>
			<point x="752.7063598633" y="856.1638793945" type="line"/>
			<point x="618.9685065524" y="875.150434473"/>
			<point x="307.636737822" y="654.2000028641"/>
			<point x="154.5564575195" y="441.1309204102" type="qcurve"/>
			<point x="199.6239013672" y="564.6017456055" type="line"/>
			<point x="324.2019373743" y="763.6080375064"/>
			<point x="691.0970263932" y="1019.9020385742"/>
			<point x="840.3156738281" y="1019.9020385742" type="qcurve" smooth="yes"/>
			<point x="851.9310102498" y="1019.9020385742"/>
			<point x="917.0420532227" y="990.8358961179"/>
			<point x="917.0420532227" y="930.319152832" type="qcurve" smooth="yes"/>
			<point x="917.0420532227" y="899.4481318986"/>
			<point x="846.9072995063" y="693.1236678939"/>
			<point x="793.7814331055" y="706.1931762695" type="qcurve" smooth="yes"/>
		</contour>
	</outline>
	<anchor name="bottom" x="282" y="0"/>
	<anchor name="top" x="486" y="1000"/>
</glyph>
<glyph name="t" format="2">
	<unicode hex="0074"/>
	<advance width="520"/>
	<outline>
		<contour>
			<point x="112.7321777344" y="-13" type="line"/>
			<point x="13.7305297852" y="35" type="line"/>
			<point x="107.7305297852" y="510" type="line"/>
			<point x="184.8435668945" y="914.7639160156" type="line"/>
			<point x="-3.4790039062" y="913.0974121094" type="line"/>
			<point x="8.2885742188" y="979.1213378906" type="line"/>
			<point x="42.4091186523" y="978.4541015625"/>
			<point x="256.821105957" y="1236.2360839844"/>
			<point x="283.151550293" y="1304.1906738281" type="qcurve"/>
			<point x="380.3094482422" y="1304.1906738281" type="line"/>
			<point x="405.3099365234" y="1268.5233764648" type="line"/>
			<point x="257.7333984375" y="500" type="line"/>
			<point x="208.0370483398" y="128.635925293" type="line"/>
			<point x="450.6873779297" y="164.635925293" type="line"/>
			<point x="450.6873779297" y="89" type="line"/>
		</contour>
		<contour>
			<point x="264.0140380859" y="924.0510253906" type="line"/>
			<point x="292.0609130859" y="1003.5866699219" type="line"/>
			<point x="580.2097167969" y="1034.0056152344" type="line"/>
			<point x="578.5817871094" y="935.0510253906" type="line"/>
		</contour>
	</outline>
	<anchor name="bottom" x="149" y="0"/>
	<anchor name="center" x="262" y="622"/>
	<anchor name="top" x="322" y="1179"/>
	<anchor name="topright" x="600" y="920"/>
</glyph>
<glyph name="u" format="2">
	<unicode hex="0075"/>
	<advance width="1221"/>
	<outline>
		<contour>
			<point x="771.1892700195" y="-18" type="line"/>
			<point x="680.1885375977" y="120.0017089844" type="line"/>
			<point x="721.665222168" y="348.9077148438" type="line"/>
			<point x="851.764465332" y="912.3792724609" type="line"/>
			<point x="827.4310913086" y="981.046081543" type="line"/>
			<point x="996.1008911133" y="1030.3798828125" type="line"/>
			<point x="1040.7678222656" y="980.3798828125" type="line"/>
			<point x="843.4200439453" y="197" type="line"/>
			<point x="825.7060546875" y="117.1813354492" type="line"/>
			<point x="999.4605712891" y="165.1813354492" type="line"/>
			<point x="1000.0969238281" y="81" type="line"/>
		</contour>
		<contour>
			<point x="65.5248413086" y="272" type="qcurve" smooth="yes"/>
			<point x="198.556640625" y="875.8349609375" type="line"/>
			<point x="66.8930053711" y="858.8349609375" type="line"/>
			<point x="66.5293579102" y="952.3798828125" type="line"/>
			<point x="260.7695922852" y="1010.3798828125" type="line"/>
			<point x="335.7703857422" y="997.3798828125" type="line"/>
			<point x="363.7712402344" y="927.7116088867" type="line"/>
			<point x="226.6365966797" y="242.2094726562" type="line" smooth="yes"/>
			<point x="212.5537109375" y="184.09375"/>
			<point x="315.0382080078" y="131.3037109375"/>
			<point x="392.9022216797" y="131.3037109375" type="qcurve" smooth="yes"/>
			<point x="509.4076538086" y="131.3037109375"/>
			<point x="802.5863647461" y="367.3081665039"/>
			<point x="815.2905883789" y="535.4515380859" type="qcurve"/>
			<point x="792.6909179688" y="360.9067993164" type="line"/>
			<point x="724.981262207" y="204.4057006836"/>
			<point x="406.7565307617" y="-10"/>
			<point x="261.311340332" y="-10" type="qcurve" smooth="yes"/>
			<point x="168.7873535156" y="-10"/>
			<point x="30.9620361328" y="118.3118286133"/>
		</contour>
	</outline>
	<anchor name="bottom" x="404" y="0"/>
	<anchor name="ogonek" x="871" y="20"/>
	<anchor name="top" x="572" y="1000"/>
	<anchor name="topright" x="915" y="1000"/>
	<anchor name="cy_descender" x="1018" y="134"/>
</glyph>
<glyph name="v" format="2">
	<unicode hex="0076"/>
	<advance width="869"/>
	<outline>
		<contour>
			<point x="207.0469360352" y="12.7143554688" type="line"/>
			<point x="178.9661865234" y="508.5316772461" type="line"/>
			<point x="165.4724121094" y="859.2211303711" type="line"/>
			<point x="28.2940673828" y="864.4938354492" type="line"/>
			<point x="27.9304199219" y="958.8569335938" type="line"/>
			<point x="257.6400146484" y="1009.1906738281" type="line"/>
			<point x="326.6412353516" y="999.1906738281" type="line"/>
			<point x="329.7884521484" y="562.8024902344" type="line"/>
			<point x="348.3692016602" y="252.3215942383" type="line"/>
			<point x="345.7481689453" y="190.015625" type="line"/>
			<point x="355.2479248047" y="190.015625" type="line"/>
			<point x="410.9368286133" y="283.7235717773" type="line"/>
			<point x="619.0709838867" y="544.2213745117"/>
			<point x="723.3948364258" y="658.1054077148"/>
			<point x="729.3948364258" y="725.6768188477" type="qcurve" smooth="yes"/>
			<point x="730.3948364258" y="810.7266845703"/>
			<point x="644.053894043" y="946.139831543"/>
			<point x="612.053894043" y="973.3633422852" type="qcurve" smooth="yes"/>
			<point x="634.053894043" y="996.3089599609"/>
			<point x="709.4779052734" y="1048.2872314453"/>
			<point x="755.5956420898" y="1048.2872314453" type="qcurve" smooth="yes"/>
			<point x="807.1929931641" y="1048.2872314453"/>
			<point x="891.8232421875" y="950.91796875"/>
			<point x="877.8232421875" y="831.3941650391" type="qcurve" smooth="yes"/>
			<point x="858.8232421875" y="755.8343505859"/>
			<point x="495.2697143555" y="307.9146728516"/>
			<point x="312.3862304688" y="-10.2856445312" type="qcurve"/>
		</contour>
	</outline>
	<anchor name="bottom" x="513" y="0"/>
	<anchor name="top" x="513" y="1000"/>
</glyph>
<glyph name="w" format="2">
	<unicode hex="0077"/>
	<advance width="1378"/>
	<outline>
		<contour>
			<point x="223.6026611328" y="13" type="line"/>
			<point x="175.4512939453" y="583.4058837891" type="line"/>
			<point x="166.2686767578" y="875.8275756836" type="line"/>
			<point x="38.2415771484" y="877.8275756836" type="line"/>
			<point x="39.8779296875" y="972.1906738281" type="line"/>
			<point x="250.8190917969" y="1009.1906738281" type="line"/>
			<point x="340.9329833984" y="999.1906738281" type="line"/>
			<point x="327.2258911133" y="636.1401367188" type="line"/>
			<point x="344.969909668" y="230.0249023438" type="line"/>
			<point x="333.0292358398" y="141.0275878906" type="line"/>
			<point x="334.0292358398" y="141.0275878906" type="line"/>
			<point x="392.7182006836" y="248.2815551758" type="line"/>
			<point x="472.8718261719" y="377.4638671875"/>
			<point x="676.1075439453" y="679.7615356445"/>
			<point x="680.7695922852" y="801.4691162109" type="qcurve"/>
			<point x="677.1801147461" y="874.1594238281" type="line"/>
			<point x="569.089050293" y="875.4220581055" type="line"/>
			<point x="570.3348388672" y="971.3406982422" type="line"/>
			<point x="754.126159668" y="1008.3406982422" type="line"/>
			<point x="845.0735473633" y="1002.3406982422" type="line"/>
			<point x="856.5395507812" y="593.2403564453" type="line"/>
			<point x="885.8540039062" y="234.2400512695" type="line"/>
			<point x="883.5751342773" y="144.3513183594" type="line"/>
			<point x="884.5751342773" y="144.3513183594" type="line"/>
			<point x="994.1542358398" y="256.436340332" type="line"/>
			<point x="1232.4945678711" y="496.521484375"/>
			<point x="1321.7793579102" y="817.4302978516"/>
			<point x="1308.4456176758" y="901.0823974609" type="qcurve" smooth="yes"/>
			<point x="1295.1118774414" y="949.2446289062"/>
			<point x="1181.442565918" y="937.5225830078"/>
			<point x="1136.1091918945" y="934.8557128906" type="qcurve" smooth="yes"/>
			<point x="1153.7758178711" y="965.5228881836"/>
			<point x="1253.1102905273" y="1025.1906738281"/>
			<point x="1317.444519043" y="1025.1906738281" type="qcurve" smooth="yes"/>
			<point x="1390.7789306641" y="938.7072143555"/>
			<point x="1479.1141967773" y="963.1900634766"/>
			<point x="1468.1141967773" y="894.5227050781" type="qcurve" smooth="yes"/>
			<point x="1449.1141967773" y="841.7309570312"/>
			<point x="1274.2341918945" y="325.6086425781"/>
			<point x="883.3065185547" y="-9" type="qcurve"/>
			<point x="747.9558105469" y="13" type="line"/>
			<point x="699.9298706055" y="554.9552612305" type="line"/>
			<point x="710.4074707031" y="621.8590087891" type="line"/>
			<point x="709.4074707031" y="621.8590087891" type="line"/>
			<point x="710.8778686523" y="527.0178833008" type="line"/>
			<point x="694.3123779297" y="412.5303955078"/>
			<point x="490.8549194336" y="134.487487793"/>
			<point x="365.2894287109" y="-5" type="qcurve"/>
		</contour>
	</outline>
	<anchor name="bottom" x="787" y="0"/>
	<anchor name="top" x="717" y="1000"/>
</glyph>
<glyph name="x" format="2">
	<unicode hex="0078"/>
	<advance width="863"/>
	<outline>
		<contour>
			<point x="164.0205688477" y="-3.4284667969" type="qcurve"/>
			<point x="17.1189575195" y="33.5715332031" type="line"/>
			<point x="30.7552490234" y="124.2982788086" type="line"/>
			<point x="132.1110229492" y="121.2982788086" type="line" smooth="yes"/>
			<point x="211.5000610352" y="117.1625976562"/>
			<point x="255.1063232422" y="172.776550293"/>
			<point x="272.5392456055" y="188.2723388672" type="qcurve" smooth="yes"/>
			<point x="322.2741088867" y="231.2009277344"/>
			<point x="407.0338745117" y="396.5974731445"/>
			<point x="460.6399536133" y="498.8173217773" type="qcurve"/>
			<point x="340.4947509766" y="879.1002807617" type="line"/>
			<point x="153.8314208984" y="877.8275756836" type="line"/>
			<point x="157.4677734375" y="972.1906738281" type="line"/>
			<point x="385.3759155273" y="1007.1906738281" type="line"/>
			<point x="481.7105712891" y="987.1906738281" type="line"/>
			<point x="524.7322387695" y="803.0032958984" type="line"/>
			<point x="534.1358642578" y="712.7411499023" type="line"/>
			<point x="535.1358642578" y="712.7411499023" type="line"/>
			<point x="569.0783691406" y="799.1100463867" type="line" smooth="yes"/>
			<point x="606.2496337891" y="862.2885131836"/>
			<point x="579.6139526367" y="880.3531494141"/>
			<point x="611.6641235352" y="918.1889648438" type="qcurve" smooth="yes"/>
			<point x="652.4387817383" y="965.7711181641"/>
			<point x="809.0299072266" y="1032.7620849609"/>
			<point x="867.6024169922" y="1032.7620849609" type="qcurve" smooth="yes"/>
			<point x="918.5754394531" y="1032.7620849609"/>
			<point x="953.9833984375" y="970.7620849609"/>
			<point x="949.9833984375" y="932.7620849609" type="qcurve" smooth="yes"/>
			<point x="945.9833984375" y="895.7620849609"/>
			<point x="892.6833496094" y="838.7620849609"/>
			<point x="856.6833496094" y="828.7620849609" type="qcurve"/>
			<point x="834.6833496094" y="839.7620849609" type="line"/>
			<point x="836.2054443359" y="869.3944091797" type="line" smooth="yes"/>
			<point x="837.099609375" y="871.9241943359"/>
			<point x="820.9919433594" y="905.5985107422"/>
			<point x="797.2938232422" y="905.5985107422" type="qcurve" smooth="yes"/>
			<point x="773.9967041016" y="905.5985107422"/>
			<point x="689.2455444336" y="835.1796875"/>
			<point x="650.6694946289" y="782.4704589844" type="qcurve" smooth="yes"/>
			<point x="606.8353881836" y="728.1671142578"/>
			<point x="620.3753051758" y="682.5101318359"/>
			<point x="573.8118286133" y="584.4141845703" type="qcurve"/>
			<point x="726.9625244141" y="113.8567504883" type="line"/>
			<point x="924.3531494141" y="143.8567504883" type="line"/>
			<point x="924.3531494141" y="58.8572387695" type="line"/>
			<point x="650.0617675781" y="-13.7930297852" type="line"/>
			<point x="575.7272949219" y="18.2069702148" type="line"/>
			<point x="500.6337280273" y="280.1256103516" type="line"/>
			<point x="486.521484375" y="368.5318603516" type="line"/>
			<point x="485.521484375" y="368.5318603516" type="line"/>
			<point x="442.7290039062" y="275.4575195312" type="line"/>
			<point x="430.3195800781" y="258.0925292969"/>
			<point x="420.9149780273" y="181.8386230469"/>
			<point x="403.6323852539" y="159.8762207031" type="qcurve" smooth="yes"/>
			<point x="341.6586303711" y="82.8751220703"/>
			<point x="248.9976196289" y="-20.5217285156"/>
		</contour>
	</outline>
	<anchor name="bottom" x="522" y="0"/>
	<anchor name="top" x="522" y="1000"/>
	<anchor name="cy_descender" x="832" y="134"/>
	<anchor name="center" x="432" y="502"/>
</glyph>
<glyph name="z" format="2">
	<unicode hex="007A"/>
	<advance width="482"/>
	<outline>
		<contour>
			<point x="-304.3369140625" y="-15.3256835938" type="line"/>
			<point x="-305.0021972656" y="54.2797851562" type="line"/>
			<point x="-222.0640869141" y="126.349609375"/>
			<point x="103.1495361328" y="514.6719970703"/>
			<point x="137.0831298828" y="581.2396240234" type="qcurve" smooth="yes"/>
			<point x="192.0933837891" y="655.2396240234"/>
			<point x="377.7490844727" y="802.3244018555"/>
			<point x="429.0114135742" y="860.1879272461" type="qcurve"/>
			<point x="47.7601318359" y="863.5211791992" type="line"/>
			<point x="-41.2395019531" y="821.1876220703" type="line"/>
			<point x="-144.8549804688" y="831.1876220703" type="line"/>
			<point x="-69.1876220703" y="989.1906738281" type="line"/>
			<point x="-47.1876220703" y="997.1906738281" type="line"/>
			<point x="584.5186767578" y="986.1906738281" type="line"/>
			<point x="593.4024658203" y="937.6320800781" type="line"/>
			<point x="535.7541503906" y="849.6320800781"/>
			<point x="314.1671142578" y="575.08203125"/>
			<point x="275.1458740234" y="506.4874267578" type="qcurve" smooth="yes"/>
			<point x="230.1571044922" y="435.9197998047"/>
			<point x="-7.1351318359" y="212.2055053711"/>
			<point x="-64.1768798828" y="172.8334350586" type="qcurve"/>
			<point x="346.3269042969" y="135.9241943359" type="line"/>
			<point x="446.9926147461" y="226.5911865234" type="line"/>
			<point x="535.8424072266" y="202.846862793" type="line"/>
			<point x="426.0247802734" y="-6" type="line"/>
			<point x="391.0247802734" y="-18" type="line"/>
			<point x="-110.3598632812" y="67.48828125" type="line"/>
		</contour>
	</outline>
	<anchor name="bottom" x="443" y="0"/>
	<anchor name="top" x="463" y="1000"/>
	<anchor name="_liga" x="0" y="0"/>
</glyph>
<glyph name="idotless" format="2">
	<unicode hex="0131"/>
	<advance width="647"/>
	<outline>
		<contour>
			<point x="141.0922851562" y="-19" type="line"/>
			<point x="63.7582397461" y="125.0017089844" type="line"/>
			<point x="174.2715454102" y="596.3521728516" type="line"/>
			<point x="225.5961303711" y="875.8275756836" type="line"/>
			<point x="78.3870239258" y="856.8275756836" type="line"/>
			<point x="80.0233764648" y="951.1906738281" type="line"/>
			<point x="286.9302368164" y="1010.1906738281" type="line"/>
			<point x="340.2646484375" y="1010.1906738281" type="line"/>
			<point x="409.598815918" y="924.5217285156" type="line"/>
			<point x="375.9323730469" y="806.1906738281" type="line"/>
			<point x="299.9412231445" y="454.6849975586" type="line"/>
			<point x="227.6701049805" y="118.9995117188" type="line"/>
			<point x="430.667175293" y="170.9995117188" type="line"/>
			<point x="430.667175293" y="86" type="line"/>
		</contour>
	</outline>
	<anchor name="bottom" x="180" y="0"/>
	<anchor name="top" x="320" y="1000"/>
	<anchor name="ogonek" x="180" y="0"/>
	<anchor name="yu_dash" x="239" y="498"/>
	<anchor name="liga" x="618" y="0"/>
</glyph>
<glyph name="jdotless" format="2">
	<unicode hex="0237"/>
	<advance width="520"/>
	<outline>
		<contour>
			<point x="250.7180175781" y="875.8275756836" type="qcurve"/>
			<point x="92.9635009766" y="857.8275756836" type="line"/>
			<point x="94.5998535156" y="952.1906738281" type="line"/>
			<point x="323.1732788086" y="1009.1906738281" type="line"/>
			<point x="377.1745605469" y="1009.1906738281" type="line"/>
			<point x="433.5087890625" y="915.1884155273" type="line"/>
			<point x="398.4366455078" y="814.1906738281" type="line"/>
			<point x="305.9318847656" y="305" type="line"/>
			<point x="247.4121704102" y="-53.1684570312"/>
			<point x="14.5791015625" y="-479"/>
			<point x="-116.5083618164" y="-479" type="qcurve"/>
			<point x="-243.9671630859" y="-453" type="line"/>
			<point x="-225.2399902344" y="-353.6369018555" type="line"/>
			<point x="-153.702331543" y="-350.0005493164" type="line" smooth="yes"/>
			<point x="-21.8421020508" y="-348.0005493164"/>
			<point x="62.0718994141" y="-65.0383300781"/>
			<point x="122.7470703125" y="224.9995727539" type="qcurve" smooth="yes"/>
			<point x="137.4965820312" y="277.2165527344"/>
			<point x="231.1994628906" y="767.5687255859"/>
		</contour>
	</outline>
	<anchor name="bottom" x="88" y="-436"/>
	<anchor name="top" x="320" y="1000"/>
	<anchor name="_liga" x="0" y="0"/>
</glyph>
